<svg width="53" height="53" viewBox="0 0 53 53" fill="none" xmlns="http://www.w3.org/2000/svg">
<path d="M26.5 53C41.1355 53 53 41.1355 53 26.5C53 11.8645 41.1355 0 26.5 0C11.8645 0 0 11.8645 0 26.5C0 41.1355 11.8645 53 26.5 53Z" fill="#DFF6FD"/>
<path d="M26.5 45.5352C37.0128 45.5352 45.5352 37.0128 45.5352 26.5C45.5352 15.9872 37.0128 7.46483 26.5 7.46483C15.9872 7.46483 7.46481 15.9872 7.46481 26.5C7.46481 37.0128 15.9872 45.5352 26.5 45.5352Z" fill="#99E6FC"/>
<path d="M36.7926 2.07333C44.6769 6.66466 49.9771 15.2072 49.9771 24.9886C49.9771 39.6241 38.1127 51.4886 23.4771 51.4886C19.8269 51.4886 16.349 50.7503 13.1846 49.4153C17.0973 51.6937 21.6458 53 26.5 53C41.1356 53 53 41.1356 53 26.5C53 15.5148 46.3157 6.09097 36.7926 2.07333Z" fill="#C8EFFE"/>
<path d="M20.1874 46.8074L20.1962 46.8047C21.975 46.2559 23.8781 46.3143 25.6366 46.9256C28.7551 48.0096 32.4219 47.6458 35.5942 45.2819C37.4416 43.9051 37.3838 43.2154 39.8243 40.7347C41.0191 39.5203 41.5812 37.8194 41.3455 36.1322C41.1548 34.7672 40.4645 33.5574 39.4539 32.7035C38.6509 32.0249 37.9271 31.2598 37.2689 30.4398C34.6504 27.1771 30.207 25.6616 25.9729 26.9681L21.1083 28.4691C18.2144 29.362 16.5924 32.4318 17.4853 35.3256C17.7977 36.338 17.2303 37.412 16.2179 37.7244C13.9131 38.4356 12.6212 40.8805 13.3324 43.1853C14.225 46.0783 17.2941 47.7001 20.1874 46.8074Z" fill="#FFF2E2"/>
<path d="M23.5836 3.96454V22.8556C23.5836 23.4058 24.0296 23.8519 24.5798 23.8519H43.9643C44.8581 23.8519 45.2997 22.766 44.6596 22.1422L25.2751 3.25111C24.6439 2.63591 23.5836 3.0832 23.5836 3.96454Z" fill="#D77F4A"/>
<path d="M26.8062 16.3486C26.6015 16.3486 26.3968 16.2705 26.2407 16.1144C25.9283 15.802 25.9283 15.2957 26.2407 14.9832L29.136 12.0878C29.4483 11.7756 29.9547 11.7756 30.2671 12.0878C30.5795 12.4003 30.5795 12.9065 30.2671 13.2191L27.3718 16.1144C27.2156 16.2706 27.0109 16.3486 26.8062 16.3486Z" fill="#AC5E2E"/>
<path d="M29.4698 19.0122C29.2651 19.0122 29.0604 18.9341 28.9043 18.7779C28.5918 18.4655 28.5918 17.9592 28.9043 17.6467L31.7996 14.7514C32.1119 14.4392 32.6183 14.4392 32.9307 14.7514C33.2431 15.0638 33.2431 15.5701 32.9307 15.8826L30.0354 18.7779C29.8792 18.9341 29.6745 19.0122 29.4698 19.0122Z" fill="#AC5E2E"/>
<path d="M32.1333 21.6758C31.9287 21.6758 31.7239 21.5976 31.5678 21.4415C31.2554 21.1291 31.2554 20.6228 31.5678 20.3103L34.4631 17.415C34.7754 17.1028 35.2818 17.1028 35.5942 17.415C35.9067 17.7274 35.9067 18.2337 35.5942 18.5462L32.6989 21.4415C32.5427 21.5977 32.3381 21.6758 32.1333 21.6758Z" fill="#AC5E2E"/>
<path d="M9.86596 36.2239C11.5707 36.5283 13.15 35.2345 13.253 33.506C13.4178 30.7412 14.2392 26.9255 15.6484 22.8495C17.0577 18.7736 18.7685 15.2654 20.3466 12.9893C21.3332 11.5662 20.8903 9.57324 19.3617 8.75971C19.2285 8.68891 19.0903 8.62845 18.9471 8.57897C15.5958 7.42022 10.7481 12.6439 8.11955 20.2464C5.49098 27.8489 6.07698 34.9512 9.4283 36.1099C9.57156 36.1595 9.71752 36.1974 9.86596 36.2239Z" fill="#D83131"/>
<path d="M29.0418 42.3918C31.8936 42.3918 34.2054 40.08 34.2054 37.2283C34.2054 34.3765 31.8936 32.0647 29.0418 32.0647C26.1901 32.0647 23.8783 34.3765 23.8783 37.2283C23.8783 40.08 26.1901 42.3918 29.0418 42.3918Z" fill="#FEA613"/>
<path d="M41.3455 36.1321C41.1548 34.7671 40.4645 33.5573 39.454 32.7034C38.6509 32.0248 37.9271 31.2596 37.2689 30.4397C34.9739 27.5801 31.277 26.063 27.5479 26.6113C30.1703 26.9943 32.5784 28.3618 34.2461 30.4397C34.9041 31.2596 35.628 32.0248 36.4311 32.7034C37.4416 33.5573 38.132 34.7672 38.3226 36.1321C38.5583 37.8193 37.9961 39.5202 36.8015 40.7346C34.361 43.2154 34.4187 43.9051 32.5713 45.2818C30.984 46.4646 29.2729 47.1467 27.5686 47.3971C30.2046 47.7824 33.0574 47.1722 35.5942 45.2818C37.4416 43.9051 37.3838 43.2154 39.8243 40.7346C41.019 39.5203 41.5812 37.8194 41.3455 36.1321Z" fill="#FFEFD2"/>
<path d="M33.9758 35.7057C33.1362 32.9846 30.2526 31.458 27.531 32.2909C29.1099 32.776 30.4291 34.0084 30.9529 35.7057C31.7938 38.4307 30.2663 41.3214 27.5414 42.1622C27.5374 42.1635 27.5335 42.1644 27.5297 42.1655C28.4856 42.4593 29.5366 42.4793 30.5642 42.1622C33.2892 41.3215 34.8167 38.4308 33.9758 35.7057Z" fill="#FE9901"/>
<path d="M44.6597 22.1422L25.2751 3.25114C24.6439 2.63605 23.5836 3.08324 23.5836 3.96457V4.8431L41.3345 22.1422C41.9746 22.766 41.533 23.852 40.6392 23.852H43.9643C44.8581 23.852 45.2998 22.766 44.6597 22.1422Z" fill="#C86D36"/>
<path d="M19.3618 8.75971C19.2286 8.6889 19.0904 8.62845 18.9472 8.57897C18.203 8.32173 17.3851 8.3797 16.5341 8.70795C16.5698 8.72513 16.6062 8.74107 16.6413 8.75971C18.1699 9.57324 18.6128 11.5662 17.6262 12.9893C16.0481 15.2654 14.3373 18.7736 12.9281 22.8495C11.5188 26.9255 10.6974 30.7411 10.5326 33.5059C10.4697 34.5616 9.8556 35.4543 8.99911 35.9206C9.13679 35.9949 9.27975 36.0585 9.42839 36.1099C9.57166 36.1595 9.71772 36.1974 9.86616 36.2239C11.5709 36.5283 13.1502 35.2346 13.2532 33.5059C13.418 30.7411 14.2394 26.9255 15.6486 22.8495C17.0579 18.7736 18.7688 15.2654 20.3468 12.9893C21.3334 11.5662 20.8905 9.57324 19.3618 8.75971Z" fill="#CA2C2C"/>
<path d="M12.1787 21.6498C11.9528 22.303 12.2993 23.0155 12.9525 23.2413L15.2524 24.0365C15.3789 23.6438 15.5108 23.248 15.6485 22.8495C15.7863 22.4511 15.927 22.0583 16.0702 21.6713L13.7703 20.8761C13.1172 20.6502 12.4046 20.9966 12.1787 21.6498Z" fill="#A72B2B"/>
<path d="M11.284 27.5414C11.0581 28.1945 11.4046 28.907 12.0578 29.1329L13.764 29.7228C13.9175 28.9383 14.1025 28.1167 14.3191 27.2667L12.8756 26.7676C12.2224 26.5417 11.5099 26.8882 11.284 27.5414Z" fill="#A72B2B"/>
<path d="M18.4119 16.28L16.7056 15.6901C16.0525 15.4642 15.34 15.8107 15.1141 16.4639C14.8882 17.117 15.2347 17.8295 15.8879 18.0554L17.3314 18.5546C17.6861 17.7522 18.0479 16.9918 18.4119 16.28Z" fill="#A72B2B"/>
</svg>
