<svg width="46" height="47" viewBox="0 0 46 47" fill="none" xmlns="http://www.w3.org/2000/svg">
<path d="M0 21.4138H46V42.0345C46 44.6628 43.8697 46.7931 41.2414 46.7931H0V21.4138Z" fill="#F0DBC2"/>
<path d="M0 26.1725H38.862C40.1762 26.1725 41.2414 27.2375 41.2414 28.5518V39.6553C41.2414 40.9694 40.1762 42.0346 38.862 42.0346H0V26.1725Z" fill="#F2B9B8"/>
<path d="M0 26.1725H38.862C40.1762 26.1725 41.2414 27.2375 41.2414 28.5518V39.6553C41.2414 40.9694 40.1762 42.0346 38.862 42.0346H0V26.1725Z" fill="#F2B9B8"/>
<path d="M0 21.4138L27.7586 4.75865C37.2013 4.76021 45.0959 11.9387 45.9929 21.3385L46 21.4138H0Z" fill="#F29C9B"/>
<path d="M36.4827 13.4828C39.1108 13.4828 41.2414 11.3523 41.2414 8.72418C41.2414 6.09606 39.1108 3.96555 36.4827 3.96555C33.8546 3.96555 31.7241 6.09606 31.7241 8.72418C31.7241 11.3523 33.8546 13.4828 36.4827 13.4828Z" fill="#F0614A"/>
<path d="M38.851 4.60001C38.7368 8.13727 35.8959 10.9781 32.3587 11.0924C33.6626 13.3742 36.5692 14.1672 38.851 12.8642C41.1327 11.5603 41.9258 8.65364 40.6228 6.37184C40.2009 5.63348 39.5894 5.02197 38.851 4.60001Z" fill="#EA5242"/>
<path d="M37.2758 7.13796H35.6896C35.6944 3.19783 38.8874 0.00475243 42.8275 0V1.58621C39.7631 1.58941 37.279 4.07338 37.2758 7.13796Z" fill="#965735"/>
<path d="M28.784 10.8714L29.9056 9.74979L27.5262 7.37034L26.4046 8.49195L28.784 10.8714Z" fill="#965735"/>
<path d="M18.8041 15.6293L21.1835 13.2498L20.0619 12.1282L17.6825 14.5077L18.8041 15.6293Z" fill="#965735"/>
<path d="M23.2326 18.8031L24.3542 17.6814L21.9747 15.302L20.8531 16.4236L23.2326 18.8031Z" fill="#965735"/>
<path d="M25.9403 15.6318L28.3198 13.2523L27.1982 12.1307L24.8187 14.5101L25.9403 15.6318Z" fill="#965735"/>
<path d="M39.4227 18.8017L41.8021 16.4222L40.6805 15.3006L38.3011 17.6801L39.4227 18.8017Z" fill="#965735"/>
<path d="M30.699 18.8024L33.0784 16.423L31.9568 15.3013L29.5774 17.6808L30.699 18.8024Z" fill="#965735"/>
<path d="M13.2505 18.8059L15.6299 16.4264L14.5083 15.3048L12.1289 17.6843L13.2505 18.8059Z" fill="#965735"/>
<path d="M29.0942 26.1724H38.8621C40.1762 26.1724 41.2414 27.2375 41.2414 28.5517V39.6552C41.2414 40.9694 40.1762 42.0346 38.8621 42.0346H10.7275L5.21782 46.7931H41.2414C43.8697 46.7931 46 44.6628 46 42.0345V21.4138H34.6047L29.0942 26.1724Z" fill="#EBD3B7"/>
<path d="M38.8621 42.0345C40.1762 42.0345 41.2414 40.9694 41.2414 39.6552V28.5518C41.2414 27.2376 40.1762 26.1725 38.8621 26.1725H29.0942L10.7275 42.0345H38.8621Z" fill="#F2AEAC"/>
<path d="M41.2414 33.3104H0V34.8966H41.2414V33.3104Z" fill="#F28685"/>
</svg>
