<svg width="61" height="45" viewBox="0 0 61 45" fill="none" xmlns="http://www.w3.org/2000/svg">
<path d="M49.5796 32.5647H45.7605C45.8534 33.2247 45.9019 33.8975 45.9019 34.5807C45.9019 35.1744 45.8658 35.7639 45.7942 36.3477C45.8954 36.3366 45.998 36.3303 46.102 36.3303C46.9676 36.3303 47.7426 36.7259 48.2558 37.3457C48.5977 36.9327 49.0558 36.6192 49.5796 36.4561V32.5647Z" fill="#FEDF30"/>
<path d="M30.9083 15.3515C31.7927 15.3515 32.619 15.8289 33.0645 16.5972L33.1659 16.7721L33.2673 16.5972C33.7129 15.8289 34.5392 15.3515 35.4235 15.3515C36.3078 15.3515 37.1342 15.8289 37.5798 16.5972L37.6811 16.7721L37.7825 16.5972C38.2281 15.8289 39.0544 15.3515 39.9387 15.3515C40.823 15.3515 41.6494 15.8289 42.095 16.5972L42.1963 16.7721L42.2977 16.5972C42.7434 15.8289 43.5697 15.3515 44.454 15.3515C45.3385 15.3515 46.1647 15.8289 46.6102 16.5972L46.7116 16.7721L46.8129 16.5972C47.2586 15.8289 48.0849 15.3515 48.9692 15.3515C49.8535 15.3515 50.6799 15.8289 51.1254 16.5972L51.2268 16.7721L51.3282 16.5972C51.7738 15.8289 52.6001 15.3515 53.4844 15.3515C54.3687 15.3515 55.195 15.8289 55.6407 16.5972L55.742 16.772L55.8434 16.5971C56.2891 15.8287 57.1153 15.3514 57.9996 15.3514C58.0165 15.3514 58.0327 15.3537 58.0494 15.354C55.9719 11.0439 50.6691 7.97918 44.4535 7.97918C38.2379 7.97918 32.9349 11.044 30.8575 15.354C30.8751 15.3537 30.8914 15.3515 30.9083 15.3515Z" fill="#F6A96C"/>
<path d="M30.9083 15.3515C31.7927 15.3515 32.619 15.8289 33.0645 16.5972L33.1659 16.7721L33.2673 16.5972C33.7129 15.8289 34.5392 15.3515 35.4235 15.3515C35.6499 15.3515 35.8723 15.3833 36.0857 15.4427C37.8387 11.7124 41.9994 8.89804 47.0884 8.16621C46.2342 8.0434 45.3538 7.97918 44.4543 7.97918C38.2387 7.97918 32.9357 11.044 30.8584 15.354C30.8751 15.3537 30.8914 15.3515 30.9083 15.3515Z" fill="#EA9B58"/>
<path d="M41.0859 11.9082C40.6004 11.9082 40.207 11.5147 40.207 11.0293V8.15983C40.207 7.67444 40.6004 7.28092 41.0859 7.28092C41.5714 7.28092 41.9648 7.67444 41.9648 8.15983V11.0293C41.9648 11.5147 41.5713 11.9082 41.0859 11.9082Z" fill="#FFBD86"/>
<path d="M44.4544 11.9082C43.9689 11.9082 43.5755 11.5147 43.5755 11.0293V8.15986C43.5755 7.67447 43.9689 7.28095 44.4544 7.28095C44.9399 7.28095 45.3333 7.67447 45.3333 8.15986V11.0293C45.3333 11.5147 44.9398 11.9082 44.4544 11.9082Z" fill="#FFBD86"/>
<path d="M47.8229 11.9082C47.3374 11.9082 46.944 11.5147 46.944 11.0293V8.15986C46.944 7.67447 47.3374 7.28095 47.8229 7.28095C48.3084 7.28095 48.7018 7.67447 48.7018 8.15986V11.0293C48.7018 11.5147 48.3084 11.9082 47.8229 11.9082Z" fill="#FFBD86"/>
<path d="M58.0006 20.3381C57.1162 20.3381 56.2899 19.8608 55.8443 19.0924L55.743 18.9176L55.6416 19.0923C55.1958 19.8607 54.3696 20.338 53.4853 20.338C52.601 20.338 51.7746 19.8607 51.3291 19.0923L51.2277 18.9175L51.1264 19.0923C50.6807 19.8607 49.8544 20.338 48.9701 20.338C48.0858 20.338 47.2594 19.8607 46.8139 19.0923L46.7125 18.9175L46.6111 19.0923C46.1655 19.8607 45.3393 20.338 44.4549 20.338C43.5705 20.338 42.7442 19.8607 42.2986 19.0923L42.1973 18.9175L42.0953 19.0924C41.6497 19.8608 40.8234 20.3381 39.9391 20.3381C39.0548 20.3381 38.2284 19.8608 37.7828 19.0924L37.6815 18.9176L37.5801 19.0924C37.2515 19.6591 36.7255 20.0685 36.099 20.245L35.7765 20.3358L36.0854 20.4657C38.4655 21.4668 40.5916 22.9996 42.2344 24.8986L42.2695 24.9391H55.9181L58.1481 20.3306C58.0988 20.3334 58.0503 20.3381 58.0006 20.3381Z" fill="#7CA1B1"/>
<path d="M58.0004 15.2344C57.0353 15.2344 56.1945 15.7596 55.7427 16.5385C55.291 15.7596 54.4503 15.2344 53.485 15.2344C52.5198 15.2344 51.679 15.7596 51.2273 16.5385C50.7755 15.7596 49.9348 15.2344 48.9695 15.2344C48.0043 15.2344 47.1636 15.7596 46.7118 16.5385C46.2602 15.7596 45.4193 15.2344 44.4541 15.2344C43.4889 15.2344 42.6481 15.7596 42.1963 16.5385C41.7446 15.7596 40.9039 15.2344 39.9386 15.2344C38.9733 15.2344 38.1326 15.7596 37.6809 16.5385C37.2291 15.7596 36.3884 15.2344 35.4231 15.2344C34.458 15.2344 33.6172 15.7596 33.1654 16.5385C32.7137 15.7596 31.873 15.2344 30.9077 15.2344C29.4659 15.2344 28.2972 16.4031 28.2972 17.8449C28.2972 18.2984 28.413 18.7248 28.6164 19.0964C28.8043 19.0906 28.9927 19.0876 29.1816 19.0876C31.5805 19.0876 33.8624 19.5591 35.9267 20.4059C36.676 20.2588 37.3096 19.7909 37.6806 19.1513C38.1324 19.9301 38.9731 20.4553 39.9384 20.4553C40.9036 20.4553 41.7443 19.9301 42.1961 19.1513C42.6477 19.9301 43.4886 20.4553 44.4538 20.4553C45.419 20.4553 46.2598 19.9301 46.7116 19.1513C47.1633 19.9301 48.004 20.4553 48.9693 20.4553C49.9346 20.4553 50.7753 19.9301 51.227 19.1513C51.6787 19.9301 52.5195 20.4553 53.4848 20.4553C54.4499 20.4553 55.2907 19.9301 55.7425 19.1513C56.1942 19.9301 57.0349 20.4553 58.0002 20.4553C59.442 20.4553 60.6107 19.2866 60.6107 17.8449C60.6109 16.4031 59.4422 15.2344 58.0004 15.2344Z" fill="#FED2A4"/>
<path d="M44.598 28.5723L44.6703 28.7367C45.229 30.0069 45.5992 31.3278 45.7776 32.6818H51.451C52.4846 32.6818 53.3223 31.8439 53.3223 30.8104V28.5723H44.598Z" fill="#E8B800"/>
<path d="M59.9871 24.8219H42.158C43.1779 25.9841 44.0196 27.2852 44.645 28.6894H59.9871C60.3317 28.6894 60.6109 28.4102 60.6109 28.0657V25.4457C60.6109 25.1012 60.3317 24.8219 59.9871 24.8219Z" fill="#FEDF30"/>
<path d="M10.7059 24.2558H6.62617C6.53887 23.2042 5.65914 22.3776 4.585 22.3776C3.45297 22.3776 2.53516 23.2953 2.53516 24.4274C2.53516 24.9169 2.70731 25.3659 2.9936 25.7184C3.83934 25.8687 4.512 26.5785 4.58512 27.4585L4.59403 27.566H8.78148V27.3758C8.78148 27.2341 8.89679 27.1187 9.03859 27.1187H10.7057V24.2558H10.7059Z" fill="#FFBD86"/>
<path d="M14.534 27.1186C15.2554 25.9073 16.1466 24.7948 17.1778 23.8085H10.963C10.7563 23.8085 10.5887 23.9761 10.5887 24.1828V27.1186H14.534Z" fill="#FE7701"/>
<path d="M57.1471 40.2447C57.1804 40.2127 57.215 40.1827 57.2478 40.1499C58.7916 38.6061 59.4213 36.4952 59.139 34.4878C59.1167 34.3296 58.9931 34.206 58.8349 34.1837C56.8274 33.9015 54.7165 34.531 53.1727 36.0749C52.0092 37.2384 51.3656 38.7241 51.2396 40.2447H57.1471Z" fill="#46CC8D"/>
<path d="M54.321 40.2448L56.5994 37.9663C56.9427 37.623 56.9427 37.0665 56.5994 36.7234C56.2561 36.3801 55.6997 36.3801 55.3564 36.7234L51.8351 40.2448H54.321Z" fill="#09A755"/>
<path d="M53.0996 40.2447C53.243 39.9002 53.3225 39.5225 53.3225 39.126C53.3225 37.5173 52.0183 36.2131 50.4095 36.2131C48.8008 36.2131 47.4966 37.5173 47.4966 39.126C47.4966 39.5225 47.5761 39.9003 47.7195 40.2447H53.0996Z" fill="#FD4755"/>
<path d="M10.8056 40.2448C10.9491 39.9002 11.0285 39.5225 11.0285 39.1261C11.0285 37.5173 9.72435 36.2132 8.11561 36.2132C6.50686 36.2132 5.20268 37.5173 5.20268 39.1261C5.20268 39.5225 5.28214 39.9003 5.42557 40.2448H10.8056Z" fill="#FD4755"/>
<path d="M29.1824 18.9704C22.7989 18.9704 17.2454 22.2643 14.3905 27.1187H24.3898C27.0412 27.1187 29.1984 29.2759 29.1984 31.9274C29.1984 34.5811 27.0445 36.7399 24.397 36.7399C23.8727 36.7399 23.3501 36.6527 22.8436 36.4807L12.4371 32.9469C12.3769 33.4838 12.3456 34.0289 12.3456 34.5806C12.3456 36.5789 12.7526 38.4886 13.4909 40.2446H44.874C45.6121 38.4884 46.0192 36.5789 46.0192 34.5806C46.0191 25.9594 38.4811 18.9704 29.1824 18.9704Z" fill="#FE9738"/>
<path d="M20.7743 27.0015C23.1594 23.0283 27.3614 20.1212 32.3393 19.2456C31.3166 19.0657 30.2615 18.9704 29.1824 18.9704C22.8506 18.9704 17.3361 22.2116 14.4612 27.0015H20.7743Z" fill="#FE860A"/>
<path d="M12.4247 33.0664C12.3729 33.5648 12.3456 34.0697 12.3456 34.5806C12.3456 36.5789 12.7526 38.4886 13.4909 40.2446H19.8046C19.1415 38.6674 18.7468 36.9661 18.673 35.1881L12.4247 33.0664Z" fill="#FE860A"/>
<path d="M43.8292 40.2448C43.9727 39.9002 44.0521 39.5225 44.0521 39.1261C44.0521 37.5173 42.748 36.2132 41.1392 36.2132C39.5305 36.2132 38.2263 37.5173 38.2263 39.1261C38.2263 39.5225 38.3057 39.9003 38.4492 40.2448H43.8292Z" fill="#FD4755"/>
<path d="M48.792 40.2448C48.9355 39.9002 49.0149 39.5225 49.0149 39.1261C49.0149 37.5173 47.7107 36.2132 46.102 36.2132C44.4933 36.2132 43.1891 37.5173 43.1891 39.1261C43.1891 39.5225 43.2685 39.9003 43.412 40.2448H48.792Z" fill="#E41F2D"/>
<path d="M15.0475 40.2448C15.1909 39.9002 15.2704 39.5225 15.2704 39.1261C15.2704 37.5173 13.9662 36.2132 12.3574 36.2132C10.7487 36.2132 9.4445 37.5173 9.4445 39.1261C9.4445 39.5225 9.52396 39.9003 9.66739 40.2448H15.0475Z" fill="#E41F2D"/>
<path d="M8.7817 27.4487H4.70206C4.61476 26.397 3.73503 25.5704 2.66089 25.5704C1.52875 25.5704 0.611053 26.4882 0.611053 27.6202C0.611053 28.2561 0.90074 28.8243 1.35519 29.2003C0.90074 29.5763 0.611053 30.1445 0.611053 30.7804C0.611053 31.9125 1.52875 32.8303 2.66089 32.8303C3.73503 32.8303 4.61464 32.0036 4.70206 30.952H8.7817V27.4487Z" fill="#FED2A4"/>
<path d="M22.806 36.5916L8.91847 31.8758C8.7666 31.8242 8.66453 31.6817 8.66453 31.5214V27.3757C8.66453 27.1689 8.83211 27.0014 9.03882 27.0014H24.3898C27.1103 27.0014 29.3156 29.2067 29.3156 31.9272C29.3156 35.3012 26.0006 37.6764 22.806 36.5916Z" fill="#FE7701"/>
<path d="M26.6365 34.5842L12.749 29.8685C12.5971 29.8169 12.495 29.6744 12.495 29.5141V27.0015H9.03882C8.83211 27.0015 8.66453 27.1691 8.66453 27.3758V31.5214C8.66453 31.6817 8.7666 31.8242 8.91847 31.8758L22.806 36.5915C24.9486 37.3191 27.1438 36.489 28.3582 34.8463C27.7938 34.8616 27.2133 34.78 26.6365 34.5842Z" fill="#F46700"/>
<path d="M57.2698 44.6756H5.95843C5.77199 44.6756 5.59527 44.5921 5.47679 44.4481L2.76074 41.1476C2.42582 40.7407 2.71527 40.1274 3.24238 40.1274H59.9861C60.5132 40.1274 60.8027 40.7407 60.4677 41.1476L57.7516 44.4481C57.633 44.5921 57.4564 44.6756 57.2698 44.6756Z" fill="#FAC600"/>
<path d="M13.068 44.4481L10.352 41.1476C10.0171 40.7407 10.3065 40.1274 10.8336 40.1274H3.24224C2.71514 40.1274 2.42568 40.7407 2.7606 41.1476L5.47665 44.4481C5.59513 44.5921 5.77185 44.6756 5.95829 44.6756H13.5496C13.3632 44.6756 13.1865 44.5921 13.068 44.4481Z" fill="#E8B800"/>
<path d="M27.581 7.62939e-06H22.286C21.8006 7.62939e-06 21.4071 0.393522 21.4071 0.878912C21.4071 1.3643 21.8006 1.75782 22.286 1.75782H27.581C28.3571 1.75782 28.9885 2.38922 28.9885 3.16535C28.9885 3.94148 28.3571 4.57289 27.581 4.57289H20.9623C19.2169 4.57289 17.7969 5.99285 17.7969 7.73823C17.7969 9.48362 19.2169 10.9036 20.9623 10.9036H23.9471C24.7363 10.9036 25.3782 11.5456 25.3782 12.3348V14.3927C25.3782 14.8781 25.7717 15.2716 26.2571 15.2716C26.7425 15.2716 27.136 14.8781 27.136 14.3927V12.3348C27.136 10.5764 25.7054 9.14577 23.9471 9.14577H20.9623C20.1861 9.14577 19.5547 8.51437 19.5547 7.73823C19.5547 6.9621 20.1861 6.3307 20.9623 6.3307H27.581C29.3264 6.3307 30.7463 4.91074 30.7463 3.16535C30.7463 1.41997 29.3264 7.62939e-06 27.581 7.62939e-06Z" fill="#FFE5C2"/>
<path d="M15.3394 21.3151C14.854 21.3151 14.4605 20.9216 14.4605 20.4362V18.3941C14.4605 17.6147 13.8264 16.9806 13.0469 16.9806H10.0849C8.34914 16.9806 6.93703 15.5685 6.93703 13.8327C6.93703 12.0969 8.34914 10.6848 10.0849 10.6848H13.548C14.0334 10.6848 14.4269 11.0784 14.4269 11.5637C14.4269 12.0491 14.0334 12.4426 13.548 12.4426H10.0849C9.3184 12.4426 8.69484 13.0662 8.69484 13.8327C8.69484 14.5992 9.3184 15.2228 10.0849 15.2228H13.0469C14.7956 15.2228 16.2183 16.6454 16.2183 18.3941V20.4362C16.2183 20.9217 15.8247 21.3151 15.3394 21.3151Z" fill="#FED2A4"/>
<path d="M35.7418 29.5113C36.2272 29.5113 36.6207 29.1178 36.6207 28.6324C36.6207 28.147 36.2272 27.7535 35.7418 27.7535C35.2564 27.7535 34.8629 28.147 34.8629 28.6324C34.8629 29.1178 35.2564 29.5113 35.7418 29.5113Z" fill="#FE7701"/>
<path d="M40.2085 31.5636C40.6939 31.5636 41.0874 31.1701 41.0874 30.6847C41.0874 30.1993 40.6939 29.8058 40.2085 29.8058C39.7231 29.8058 39.3296 30.1993 39.3296 30.6847C39.3296 31.1701 39.7231 31.5636 40.2085 31.5636Z" fill="#FE7701"/>
<path d="M42.8645 34.7025C43.3499 34.7025 43.7434 34.309 43.7434 33.8235C43.7434 33.3381 43.3499 32.9446 42.8645 32.9446C42.379 32.9446 41.9855 33.3381 41.9855 33.8235C41.9855 34.309 42.379 34.7025 42.8645 34.7025Z" fill="#FE7701"/>
<path d="M39.1221 27.3383C39.6075 27.3383 40.001 26.9448 40.001 26.4594C40.001 25.974 39.6075 25.5805 39.1221 25.5805C38.6367 25.5805 38.2432 25.974 38.2432 26.4594C38.2432 26.9448 38.6367 27.3383 39.1221 27.3383Z" fill="#FE7701"/>
<path d="M36.1039 35.3059C36.5893 35.3059 36.9828 34.9124 36.9828 34.427C36.9828 33.9416 36.5893 33.5481 36.1039 33.5481C35.6185 33.5481 35.225 33.9416 35.225 34.427C35.225 34.9124 35.6185 35.3059 36.1039 35.3059Z" fill="#FE7701"/>
</svg>
