<svg width="52" height="51" viewBox="0 0 52 51" fill="none" xmlns="http://www.w3.org/2000/svg">
<path d="M48.008 39.2513H4.22297C2.33559 39.2513 0.805527 37.7213 0.805527 35.8338V35.161C0.805527 33.2736 2.33559 31.7436 4.22297 31.7436H48.0081C49.8954 31.7436 51.4255 33.2736 51.4255 35.161V35.8338C51.4254 37.7213 49.8954 39.2513 48.008 39.2513Z" fill="#E94444"/>
<path d="M51.4252 35.1606V35.8336C51.4252 37.7214 49.8958 39.2518 48.0081 39.2518H46.0083C47.8961 39.2518 49.4255 37.7214 49.4255 35.8336V35.1606C49.4255 33.2738 47.8961 31.7435 46.0083 31.7435H48.0081C49.8958 31.7435 51.4252 33.2739 51.4252 35.1606Z" fill="#D83131"/>
<path d="M48.008 39.2513H26.1155H4.22298C4.22298 39.2513 2.71302 46.5424 11.3056 49.4107C12.7775 49.9021 14.3142 50.1309 15.8552 50.1309H26.1156H36.376C37.917 50.1309 39.4537 49.9021 40.9256 49.4107C49.5179 46.5424 48.008 39.2513 48.008 39.2513Z" fill="#FE9738"/>
<path d="M40.9254 49.4106C39.4531 49.9024 37.9166 50.1315 36.376 50.1315H34.0565C35.5981 50.1315 37.1346 49.9024 38.6069 49.4106C47.1985 46.5422 45.6886 39.2519 45.6886 39.2519H48.0081C48.0081 39.2518 49.5181 46.5422 40.9254 49.4106Z" fill="#FE860A"/>
<path d="M48.0881 33.1048C48.0881 34.811 46.1055 35.736 44.7873 34.6526C44.2455 34.2073 43.6056 33.8544 42.5915 33.8544C39.8436 33.8544 39.8436 36.0311 37.0956 36.0311C34.3476 36.0311 34.3476 33.8544 31.5997 33.8544C28.8518 33.8544 28.8518 36.0311 26.1039 36.0311C23.3562 36.0311 23.3562 33.8544 20.6083 33.8544C17.8603 33.8544 17.8603 36.0311 15.1123 36.0311C12.3645 36.0311 12.3645 33.8544 9.61659 33.8544C8.60292 33.8544 7.96322 34.2071 7.42149 34.6522C6.10324 35.7356 4.12065 34.8108 4.12065 33.1045V29.0665H48.0879V33.1048H48.0881Z" fill="#BBEC6C"/>
<path d="M48.0885 29.0667V33.1049C48.0885 34.7015 46.3524 35.6137 45.0501 34.8368C45.6254 34.5008 46.0388 33.8847 46.0388 33.1049V29.0667H48.0885Z" fill="#A2E62E"/>
<path d="M4.14282 25.831V29.0965H8.85633C9.83689 29.0965 10.6318 29.8915 10.6318 30.872V40.277C10.6318 41.5306 11.6482 42.547 12.9019 42.547C14.1555 42.547 15.1718 41.5306 15.1718 40.277V30.872C15.1718 29.8915 15.9667 29.0965 16.9473 29.0965H48.0882V25.831H4.14282Z" fill="#FEE45A"/>
<path d="M46.0389 25.8308H48.0886V29.0962H46.0389V25.8308Z" fill="#FEDF30"/>
<path d="M48.008 26.0545H4.22297C2.33559 26.0545 0.805527 24.5246 0.805527 22.6371V21.9643C0.805527 20.0769 2.33559 18.5468 4.22297 18.5468H48.0081C49.8954 18.5468 51.4255 20.0769 51.4255 21.9643V22.6371C51.4254 24.5246 49.8954 26.0545 48.008 26.0545Z" fill="#9E5528"/>
<path d="M51.4252 21.964V22.637C51.4252 24.5248 49.8958 26.0542 48.0081 26.0542H46.0083C47.8961 26.0542 49.4255 24.5248 49.4255 22.637V21.964C49.4255 20.0772 47.8961 18.5469 46.0083 18.5469H48.0081C49.8958 18.547 51.4252 20.0773 51.4252 21.964Z" fill="#904D24"/>
<path d="M26.1155 0.000541687C9.04699 0.247553 3.31221 9.50632 1.41902 14.8861C0.770248 16.7295 2.15345 18.6586 4.10765 18.6586H26.1155H48.1231C50.0918 18.6586 51.4571 16.71 50.8006 14.854C48.896 9.46965 43.1502 0.24706 26.1155 0.000541687Z" fill="#FE9738"/>
<path d="M48.1232 18.6588H47.8798C48.5427 17.9195 48.8155 16.8433 48.446 15.7966C46.5409 10.4112 40.7952 1.18932 23.7605 0.942899C19.3536 1.00598 15.7013 1.67092 12.6772 2.71456C16.1066 1.13934 20.4971 0.081417 26.1156 0C43.1502 0.247405 48.8961 9.46941 50.8011 14.8537C51.4568 16.7099 50.0913 18.6588 48.1232 18.6588Z" fill="#FE860A"/>
<path d="M19.07 7.82744C18.9514 7.82744 18.831 7.79875 18.7192 7.73843C18.3601 7.54435 18.2263 7.09577 18.4204 6.73659L19.0829 5.5108C19.2769 5.15162 19.7255 5.01786 20.0847 5.21194C20.4439 5.40602 20.5776 5.8546 20.3836 6.21378L19.7211 7.43957C19.5874 7.68698 19.3329 7.82744 19.07 7.82744Z" fill="#E57917"/>
<path d="M26.1063 7.91111C25.698 7.91111 25.367 7.58012 25.367 7.17185V5.7785C25.367 5.37023 25.698 5.03924 26.1063 5.03924C26.5146 5.03924 26.8456 5.37023 26.8456 5.7785V7.17185C26.8456 7.58012 26.5146 7.91111 26.1063 7.91111Z" fill="#E57917"/>
<path d="M33.1609 7.81722C32.9059 7.81722 32.6578 7.68514 32.5207 7.44868L31.8217 6.24329C31.6168 5.89012 31.7371 5.4378 32.0903 5.23297C32.4434 5.02815 32.8958 5.1484 33.1006 5.50157L33.7996 6.70696C34.0045 7.06012 33.8842 7.51245 33.531 7.71727C33.4143 7.78509 33.2869 7.81722 33.1609 7.81722Z" fill="#E57917"/>
</svg>
